<svg xmlns="http://www.w3.org/2000/svg" xmlns:xlink="http://www.w3.org/1999/xlink" width="40" zoomAndPan="magnify" viewBox="0 0 30 30.000001" height="40" preserveAspectRatio="xMidYMid meet" version="1.0"><defs><clipPath id="980233b637"><path d="M 1.933594 7.132812 L 20 7.132812 L 20 18 L 1.933594 18 Z M 1.933594 7.132812 " clip-rule="nonzero"/></clipPath><clipPath id="b460c816c1"><path d="M 10 11 L 28.066406 11 L 28.066406 21.652344 L 10 21.652344 Z M 10 11 " clip-rule="nonzero"/></clipPath><clipPath id="52105d5367"><path d="M 18.628906 16.570312 L 20.082031 16.570312 L 20.082031 18.023438 L 18.628906 18.023438 Z M 18.628906 16.570312 " clip-rule="nonzero"/></clipPath><clipPath id="61c082ccfa"><path d="M 19.355469 16.570312 C 18.953125 16.570312 18.628906 16.894531 18.628906 17.296875 C 18.628906 17.695312 18.953125 18.023438 19.355469 18.023438 C 19.753906 18.023438 20.082031 17.695312 20.082031 17.296875 C 20.082031 16.894531 19.753906 16.570312 19.355469 16.570312 Z M 19.355469 16.570312 " clip-rule="nonzero"/></clipPath></defs><g clip-path="url(#980233b637)"><path fill="#f67520" d="M 16.792969 14.925781 L 19.585938 12.128906 L 16.089844 8.628906 C 14.59375 7.136719 12.167969 7.136719 10.675781 8.628906 L 1.933594 17.371094 L 7.554688 17.410156 L 13.414062 11.546875 Z M 16.792969 14.925781 " fill-opacity="1" fill-rule="nonzero"/></g><g clip-path="url(#b460c816c1)"><path fill="#f67520" d="M 22.582031 11.644531 L 16.792969 17.433594 L 13.449219 14.09375 L 10.652344 16.886719 L 14.292969 20.527344 C 15.652344 21.886719 17.863281 21.886719 19.222656 20.527344 L 28.066406 11.683594 Z M 22.582031 11.644531 " fill-opacity="1" fill-rule="nonzero"/></g><g clip-path="url(#52105d5367)"><g clip-path="url(#61c082ccfa)"><path fill="#f67520" d="M 18.628906 16.570312 L 20.082031 16.570312 L 20.082031 18.023438 L 18.628906 18.023438 Z M 18.628906 16.570312 " fill-opacity="1" fill-rule="nonzero"/></g></g></svg>