<svg xmlns="http://www.w3.org/2000/svg" xmlns:xlink="http://www.w3.org/1999/xlink" width="160" zoomAndPan="magnify" viewBox="0 0 120 30.000001" height="40" preserveAspectRatio="xMidYMid meet" version="1.0"><defs><g/><clipPath id="60b107fa31"><path d="M 7.148438 6.089844 L 28 6.089844 L 28 19 L 7.148438 19 Z M 7.148438 6.089844 " clip-rule="nonzero"/></clipPath><clipPath id="eb26318b49"><path d="M 17 11 L 37.632812 11 L 37.632812 23.507812 L 17 23.507812 Z M 17 11 " clip-rule="nonzero"/></clipPath></defs><g clip-path="url(#60b107fa31)"><path fill="#f67520" d="M 24.640625 15.265625 L 27.933594 11.976562 L 23.816406 7.855469 C 22.054688 6.097656 19.199219 6.097656 17.4375 7.855469 L 7.148438 18.148438 L 13.765625 18.195312 L 20.667969 11.292969 Z M 24.640625 15.265625 " fill-opacity="1" fill-rule="nonzero"/></g><g clip-path="url(#eb26318b49)"><path fill="#f67520" d="M 31.457031 11.40625 L 24.640625 18.222656 L 20.707031 14.289062 L 17.414062 17.578125 L 21.699219 21.863281 C 23.300781 23.46875 25.902344 23.46875 27.503906 21.863281 L 37.917969 11.453125 Z M 31.457031 11.40625 " fill-opacity="1" fill-rule="nonzero"/></g><g fill="#ededf0" fill-opacity="1"><g transform="translate(42.519478, 19.664538)"><g><path d="M 11.0625 -10.671875 L 11.0625 0 L 9.03125 0 L 3.703125 -6.484375 L 3.703125 0 L 1.265625 0 L 1.265625 -10.671875 L 3.3125 -10.671875 L 8.609375 -4.1875 L 8.609375 -10.671875 Z M 11.0625 -10.671875 "/></g></g></g><g fill="#ededf0" fill-opacity="1"><g transform="translate(57.036991, 19.664538)"><g><path d="M 6.015625 0.1875 C 4.484375 0.1875 3.289062 -0.234375 2.4375 -1.078125 C 1.59375 -1.921875 1.171875 -3.128906 1.171875 -4.703125 L 1.171875 -10.671875 L 3.640625 -10.671875 L 3.640625 -4.78125 C 3.640625 -2.875 4.4375 -1.921875 6.03125 -1.921875 C 6.800781 -1.921875 7.390625 -2.148438 7.796875 -2.609375 C 8.203125 -3.078125 8.40625 -3.800781 8.40625 -4.78125 L 8.40625 -10.671875 L 10.84375 -10.671875 L 10.84375 -4.703125 C 10.84375 -3.128906 10.414062 -1.921875 9.5625 -1.078125 C 8.71875 -0.234375 7.535156 0.1875 6.015625 0.1875 Z M 6.015625 0.1875 "/></g></g></g><g fill="#ededf0" fill-opacity="1"><g transform="translate(71.249528, 19.664538)"><g><path d="M 11.53125 -10.671875 L 6.90625 0 L 4.46875 0 L -0.140625 -10.671875 L 2.53125 -10.671875 L 5.78125 -3.046875 L 9.078125 -10.671875 Z M 11.53125 -10.671875 "/></g></g></g><g fill="#ededf0" fill-opacity="1"><g transform="translate(84.821628, 19.664538)"><g><path d="M 1.265625 -10.671875 L 3.734375 -10.671875 L 3.734375 0 L 1.265625 0 Z M 1.265625 -10.671875 "/></g></g></g><g fill="#ededf0" fill-opacity="1"><g transform="translate(92.019803, 19.664538)"><g><path d="M 7.984375 0 L 5.40625 -3.703125 L 2.875 0 L 0.046875 0 L 4 -5.421875 L 0.25 -10.671875 L 3.046875 -10.671875 L 5.5 -7.21875 L 7.921875 -10.671875 L 10.578125 -10.671875 L 6.859375 -5.515625 L 10.84375 0 Z M 7.984375 0 "/></g></g></g></svg>