<svg xmlns="http://www.w3.org/2000/svg" xmlns:xlink="http://www.w3.org/1999/xlink" width="500" zoomAndPan="magnify" viewBox="0 0 375 374.999991" height="500" preserveAspectRatio="xMidYMid meet" version="1.0"><defs><clipPath id="e7251018a8"><path d="M 6.910156 92 L 249 92 L 249 283 L 6.910156 283 Z M 6.910156 92 " clip-rule="nonzero"/></clipPath><clipPath id="99cc18d2fd"><path d="M 129.324219 96 L 368.082031 96 L 368.082031 285.5 L 129.324219 285.5 Z M 129.324219 96 " clip-rule="nonzero"/></clipPath></defs><g clip-path="url(#e7251018a8)"><path fill="#ff751f" d="M 248.980469 158.53125 L 224.046875 122.085938 C 213.996094 107.402344 198.632812 96.910156 181.097656 93.882812 C 155.664062 89.492188 130.582031 100.476562 116.460938 121.226562 L 6.910156 282.183594 C 49.070312 282.183594 88.511719 261.359375 112.292969 226.546875 L 170.40625 141.476562 L 214.96875 208.324219 L 248.980469 158.53125 " fill-opacity="1" fill-rule="nonzero"/></g><g clip-path="url(#99cc18d2fd)"><path fill="#ff751f" d="M 262.695312 151.882812 L 204.585938 236.949219 L 156.578125 164.933594 L 129.617188 225.171875 L 150.945312 256.34375 C 160.996094 271.03125 176.367188 281.519531 193.902344 284.546875 C 219.332031 288.933594 244.410156 277.949219 258.53125 257.199219 L 368.082031 96.246094 C 325.917969 96.246094 286.476562 117.066406 262.695312 151.882812 " fill-opacity="1" fill-rule="nonzero"/></g><path fill="#ff751f" d="M 155.492188 163.308594 L 121.417969 213.1875 L 129.617188 225.171875 L 156.578125 164.933594 L 155.492188 163.308594 " fill-opacity="1" fill-rule="nonzero"/></svg>