<svg xmlns="http://www.w3.org/2000/svg" xmlns:xlink="http://www.w3.org/1999/xlink" width="500" zoomAndPan="magnify" viewBox="0 0 375 374.999991" height="500" preserveAspectRatio="xMidYMid meet" version="1.0"><defs><clipPath id="3bb4a39207"><path d="M 16.015625 42.6875 L 358.980469 42.6875 L 358.980469 276 L 16.015625 276 Z M 16.015625 42.6875 " clip-rule="nonzero"/></clipPath><clipPath id="79c190ab74"><path d="M 16.015625 99 L 358.980469 99 L 358.980469 332.1875 L 16.015625 332.1875 Z M 16.015625 99 " clip-rule="nonzero"/></clipPath></defs><g clip-path="url(#3bb4a39207)"><path fill="#ff751f" d="M 181.421875 96.964844 C 198.074219 99.839844 212.667969 109.800781 222.207031 123.746094 L 245.886719 158.351562 L 213.585938 205.636719 L 171.269531 142.160156 L 157.109375 162.890625 L 158.140625 164.433594 L 203.726562 232.816406 L 258.90625 152.039062 C 281.492188 118.980469 318.945312 99.207031 358.980469 99.207031 C 338.933594 94.488281 318.183594 99.730469 305.878906 104.09375 C 279.664062 66.953125 236.417969 42.691406 187.496094 42.691406 C 107.527344 42.691406 42.699219 107.519531 42.699219 187.488281 C 42.699219 196.503906 43.527344 205.320312 45.101562 213.875 L 16.015625 275.773438 L 120.042969 122.929688 C 133.457031 103.226562 157.273438 92.792969 181.421875 96.964844 " fill-opacity="1" fill-rule="nonzero"/></g><g clip-path="url(#79c190ab74)"><path fill="#ff751f" d="M 358.980469 99.207031 L 254.953125 252.046875 C 241.542969 271.75 217.730469 282.179688 193.582031 278.015625 C 176.929688 275.144531 162.335938 265.183594 152.792969 251.234375 L 132.539062 221.636719 L 124.753906 210.257812 L 116.089844 222.941406 C 93.507812 256 56.054688 275.773438 16.015625 275.773438 C 36.0625 280.492188 56.808594 275.25 69.117188 270.882812 C 95.328125 308.027344 138.578125 332.289062 187.496094 332.289062 C 267.46875 332.289062 332.296875 267.460938 332.296875 187.488281 C 332.296875 178.476562 331.46875 169.65625 329.890625 161.101562 L 358.980469 99.207031 " fill-opacity="1" fill-rule="nonzero"/></g></svg>