<svg xmlns="http://www.w3.org/2000/svg" xmlns:xlink="http://www.w3.org/1999/xlink" width="1682" zoomAndPan="magnify" viewBox="0 0 1261.5 275.999989" height="368" preserveAspectRatio="xMidYMid meet" version="1.0"><defs><g/><clipPath id="9da514929b"><path d="M 27.589844 27 L 310 27 L 310 249 L 27.589844 249 Z M 27.589844 27 " clip-rule="nonzero"/></clipPath><clipPath id="ac51859342"><path d="M 170.167969 31.386719 L 448.171875 31.386719 L 448.171875 252.148438 L 170.167969 252.148438 Z M 170.167969 31.386719 " clip-rule="nonzero"/></clipPath><clipPath id="43ebc04a5b"><path d="M 431 0.0546875 L 1193 0.0546875 L 1193 275.945312 L 431 275.945312 Z M 431 0.0546875 " clip-rule="nonzero"/></clipPath><clipPath id="98ad7073ae"><rect x="0" width="762" y="0" height="276"/></clipPath></defs><g clip-path="url(#9da514929b)"><path fill="#ff751f" d="M 309.535156 104.261719 L 280.496094 61.8125 C 268.789062 44.710938 250.894531 32.492188 230.46875 28.964844 C 200.851562 23.847656 171.636719 36.644531 155.183594 60.8125 L 27.589844 248.28125 C 76.695312 248.28125 122.636719 224.027344 150.332031 183.480469 L 218.015625 84.398438 L 269.921875 162.257812 L 309.535156 104.261719 " fill-opacity="1" fill-rule="nonzero"/></g><g clip-path="url(#ac51859342)"><path fill="#ff751f" d="M 325.507812 96.515625 L 257.828125 195.597656 L 201.914062 111.71875 L 170.511719 181.882812 L 195.351562 218.1875 C 207.058594 235.292969 224.960938 247.507812 245.386719 251.03125 C 275.003906 256.144531 304.210938 243.347656 320.660156 219.183594 L 448.253906 31.714844 C 399.144531 31.714844 353.210938 55.96875 325.507812 96.515625 " fill-opacity="1" fill-rule="nonzero"/></g><path fill="#ff751f" d="M 200.648438 109.824219 L 160.960938 167.921875 L 170.511719 181.882812 L 201.914062 111.71875 L 200.648438 109.824219 " fill-opacity="1" fill-rule="nonzero"/><g clip-path="url(#43ebc04a5b)"><g transform="matrix(1, 0, 0, 1, 431, -0.000000000000021386)"><g clip-path="url(#98ad7073ae)"><g fill="#0e0e0e" fill-opacity="1"><g transform="translate(0.780157, 249.951388)"><g><path d="M 18.90625 -27.203125 L 18.90625 -83.25 C 18.90625 -94.082031 20.117188 -103.421875 22.546875 -111.265625 C 24.984375 -119.117188 28.96875 -126.582031 34.5 -133.65625 C 41.125 -142.0625 49.300781 -148.585938 59.03125 -153.234375 C 68.757812 -157.878906 78.929688 -160.203125 89.546875 -160.203125 C 101.929688 -160.203125 113.707031 -157.050781 124.875 -150.75 C 136.039062 -144.445312 144.941406 -135.878906 151.578125 -125.046875 C 154.671875 -119.953125 157.046875 -113.703125 158.703125 -106.296875 C 160.359375 -98.890625 161.1875 -90.765625 161.1875 -81.921875 L 161.1875 -22.21875 C 160.96875 -14.695312 158.867188 -8.722656 154.890625 -4.296875 C 150.910156 0.117188 145.710938 2.328125 139.296875 2.328125 C 132.671875 2.328125 127.3125 0.0625 123.21875 -4.46875 C 119.125 -9.007812 117.078125 -14.925781 117.078125 -22.21875 L 117.078125 -77.9375 C 117.078125 -84.570312 116.851562 -89.328125 116.40625 -92.203125 C 115.96875 -95.078125 115.195312 -97.953125 114.09375 -100.828125 C 112.101562 -105.253906 108.84375 -108.898438 104.3125 -111.765625 C 99.78125 -114.640625 94.972656 -116.078125 89.890625 -116.078125 C 82.148438 -116.078125 75.734375 -113.3125 70.640625 -107.78125 C 65.554688 -102.257812 63.015625 -95.519531 63.015625 -87.5625 L 63.015625 -22.21875 C 62.796875 -14.695312 60.695312 -8.722656 56.71875 -4.296875 C 52.738281 0.117188 47.429688 2.328125 40.796875 2.328125 C 34.378906 2.328125 29.125 0.0625 25.03125 -4.46875 C 20.945312 -9.007812 18.90625 -14.925781 18.90625 -22.21875 Z M 18.90625 -27.203125 "/></g></g></g><g fill="#0e0e0e" fill-opacity="1"><g transform="translate(180.880798, 249.951388)"><g><path d="M 117.078125 -77.609375 L 117.078125 -134.65625 C 117.296875 -142.175781 119.394531 -148.144531 123.375 -152.5625 C 127.363281 -156.988281 132.671875 -159.203125 139.296875 -159.203125 C 145.710938 -159.203125 150.960938 -156.9375 155.046875 -152.40625 C 159.140625 -147.875 161.1875 -141.957031 161.1875 -134.65625 L 161.1875 -73.96875 C 161.1875 -63.125 159.96875 -53.722656 157.53125 -45.765625 C 155.101562 -37.804688 151.128906 -30.398438 145.609375 -23.546875 C 138.972656 -15.140625 130.789062 -8.5625 121.0625 -3.8125 C 111.332031 0.9375 101.160156 3.3125 90.546875 3.3125 C 78.160156 3.3125 66.382812 0.160156 55.21875 -6.140625 C 44.050781 -12.441406 35.15625 -21.007812 28.53125 -31.84375 C 25.425781 -36.925781 23.046875 -43.222656 21.390625 -50.734375 C 19.734375 -58.253906 18.90625 -66.328125 18.90625 -74.953125 L 18.90625 -134.65625 C 19.125 -142.175781 21.164062 -148.144531 25.03125 -152.5625 C 28.90625 -156.988281 34.160156 -159.203125 40.796875 -159.203125 C 47.429688 -159.203125 52.789062 -156.9375 56.875 -152.40625 C 60.96875 -147.875 63.015625 -141.957031 63.015625 -134.65625 L 63.015625 -78.9375 C 63.015625 -72.300781 63.234375 -67.546875 63.671875 -64.671875 C 64.117188 -61.796875 64.894531 -59.035156 66 -56.390625 C 67.988281 -51.960938 71.25 -48.253906 75.78125 -45.265625 C 80.320312 -42.285156 85.132812 -40.796875 90.21875 -40.796875 C 97.957031 -40.796875 104.367188 -43.554688 109.453125 -49.078125 C 114.535156 -54.609375 117.078125 -61.351562 117.078125 -69.3125 Z M 117.078125 -77.609375 "/></g></g></g><g fill="#0e0e0e" fill-opacity="1"><g transform="translate(360.981439, 249.951388)"><g><path d="M 7.296875 -121.390625 L 5.3125 -125.703125 C 3.320312 -130.347656 2.328125 -134.660156 2.328125 -138.640625 C 2.328125 -144.390625 4.476562 -149.253906 8.78125 -153.234375 C 13.09375 -157.210938 18.125 -159.203125 23.875 -159.203125 C 29.625 -159.203125 34.101562 -157.816406 37.3125 -155.046875 C 40.519531 -152.285156 43.890625 -147.148438 47.421875 -139.640625 L 79.265625 -66.328125 L 110.78125 -139.640625 C 114.09375 -147.378906 117.351562 -152.570312 120.5625 -155.21875 C 123.769531 -157.875 128.132812 -159.203125 133.65625 -159.203125 C 139.632812 -159.203125 144.773438 -157.210938 149.078125 -153.234375 C 153.390625 -149.253906 155.546875 -144.390625 155.546875 -138.640625 C 155.546875 -134.441406 154.550781 -130.347656 152.5625 -126.359375 L 150.578125 -121.71875 L 101.484375 -13.9375 C 96.617188 -3.09375 89.320312 2.328125 79.59375 2.328125 C 74.289062 2.328125 70.035156 1.113281 66.828125 -1.3125 C 63.617188 -3.75 60.578125 -7.957031 57.703125 -13.9375 Z M 7.296875 -121.390625 "/></g></g></g><g fill="#0e0e0e" fill-opacity="1"><g transform="translate(518.528044, 249.951388)"><g><path d="M 20.5625 -27.203125 L 20.5625 -134.65625 C 20.78125 -142.175781 22.878906 -148.144531 26.859375 -152.5625 C 30.835938 -156.988281 36.035156 -159.203125 42.453125 -159.203125 C 49.085938 -159.203125 54.445312 -156.9375 58.53125 -152.40625 C 62.625 -147.875 64.671875 -141.957031 64.671875 -134.65625 L 64.671875 -22.21875 C 64.453125 -14.695312 62.351562 -8.722656 58.375 -4.296875 C 54.394531 0.117188 49.195312 2.328125 42.78125 2.328125 C 36.144531 2.328125 30.78125 0.0625 26.6875 -4.46875 C 22.601562 -9.007812 20.5625 -14.925781 20.5625 -22.21875 Z M 42.453125 -221.5625 C 49.753906 -221.5625 55.945312 -219.015625 61.03125 -213.921875 C 66.113281 -208.835938 68.65625 -202.648438 68.65625 -195.359375 C 68.65625 -188.054688 66.054688 -181.804688 60.859375 -176.609375 C 55.660156 -171.421875 49.304688 -168.828125 41.796875 -168.828125 C 38.253906 -168.828125 34.878906 -169.539062 31.671875 -170.96875 C 28.460938 -172.40625 25.640625 -174.285156 23.203125 -176.609375 C 20.773438 -178.929688 18.84375 -181.640625 17.40625 -184.734375 C 15.96875 -187.835938 15.25 -191.15625 15.25 -194.6875 C 15.25 -202.425781 17.847656 -208.835938 23.046875 -213.921875 C 28.242188 -219.015625 34.710938 -221.5625 42.453125 -221.5625 Z M 42.453125 -221.5625 "/></g></g></g><g fill="#0e0e0e" fill-opacity="1"><g transform="translate(602.442352, 249.951388)"><g><path d="M 80.265625 -48.421875 L 48.75 -10.9375 C 44.332031 -5.851562 40.570312 -2.316406 37.46875 -0.328125 C 34.375 1.660156 30.835938 2.65625 26.859375 2.65625 C 20.453125 2.65625 15.035156 0.445312 10.609375 -3.96875 C 6.191406 -8.394531 3.984375 -13.816406 3.984375 -20.234375 C 3.984375 -23.328125 4.753906 -26.363281 6.296875 -29.34375 C 7.847656 -32.332031 10.503906 -36.039062 14.265625 -40.46875 L 50.75 -81.921875 L 20.890625 -117.75 C 17.128906 -122.164062 14.585938 -125.863281 13.265625 -128.84375 C 11.941406 -131.832031 11.28125 -134.988281 11.28125 -138.3125 C 11.28125 -144.0625 13.488281 -149.035156 17.90625 -153.234375 C 22.332031 -157.429688 27.75 -159.53125 34.15625 -159.53125 C 38.132812 -159.53125 41.5625 -158.585938 44.4375 -156.703125 C 47.3125 -154.828125 50.960938 -151.347656 55.390625 -146.265625 L 80.265625 -115.75 L 106.46875 -145.9375 C 110.882812 -151.019531 114.695312 -154.554688 117.90625 -156.546875 C 121.113281 -158.535156 124.707031 -159.53125 128.6875 -159.53125 C 134.875 -159.53125 140.234375 -157.265625 144.765625 -152.734375 C 149.304688 -148.203125 151.578125 -142.726562 151.578125 -136.3125 C 151.578125 -133.21875 150.742188 -130.125 149.078125 -127.03125 C 147.421875 -123.9375 144.601562 -120.175781 140.625 -115.75 L 109.453125 -81.921875 L 144.9375 -40.46875 C 148.914062 -36.039062 151.625 -32.332031 153.0625 -29.34375 C 154.5 -26.363281 155.21875 -23.328125 155.21875 -20.234375 C 155.21875 -14.035156 153.003906 -8.671875 148.578125 -4.140625 C 144.160156 0.390625 138.859375 2.65625 132.671875 2.65625 C 128.691406 2.65625 125.097656 1.609375 121.890625 -0.484375 C 118.679688 -2.585938 114.867188 -6.296875 110.453125 -11.609375 Z M 80.265625 -48.421875 "/></g></g></g></g></g></g></svg>