<svg xmlns="http://www.w3.org/2000/svg" xmlns:xlink="http://www.w3.org/1999/xlink" width="500" zoomAndPan="magnify" viewBox="0 0 375 374.999991" height="500" preserveAspectRatio="xMidYMid meet" version="1.0"><defs><clipPath id="1d3fbb4d9c"><path d="M 15.871094 97 L 246 97 L 246 278 L 15.871094 278 Z M 15.871094 97 " clip-rule="nonzero"/></clipPath><clipPath id="b94ba2a21f"><path d="M 132.210938 100.507812 L 359.125 100.507812 L 359.125 280.644531 L 132.210938 280.644531 Z M 132.210938 100.507812 " clip-rule="nonzero"/></clipPath></defs><g clip-path="url(#1d3fbb4d9c)"><path fill="#68a0a6" d="M 245.933594 159.972656 L 222.238281 125.335938 C 212.6875 111.378906 198.082031 101.410156 181.417969 98.53125 C 157.25 94.359375 133.410156 104.800781 119.988281 124.519531 L 15.871094 277.488281 C 55.941406 277.488281 93.429688 257.699219 116.027344 224.613281 L 171.257812 143.765625 L 213.609375 207.296875 L 245.933594 159.972656 " fill-opacity="1" fill-rule="nonzero"/></g><g clip-path="url(#b94ba2a21f)"><path fill="#9f627a" d="M 258.96875 153.652344 L 203.742188 234.5 L 158.117188 166.058594 L 132.496094 223.308594 L 152.761719 252.933594 C 162.3125 266.890625 176.921875 276.859375 193.589844 279.734375 C 217.757812 283.90625 241.589844 273.464844 255.011719 253.746094 L 359.125 100.777344 C 319.054688 100.777344 281.570312 120.566406 258.96875 153.652344 " fill-opacity="1" fill-rule="nonzero"/></g><path fill="#925f73" d="M 157.085938 164.511719 L 124.703125 211.917969 L 132.496094 223.308594 L 158.117188 166.058594 L 157.085938 164.511719 " fill-opacity="1" fill-rule="nonzero"/></svg>